<svg xmlns="http://www.w3.org/2000/svg" xmlns:xlink="http://www.w3.org/1999/xlink" viewBox="0 0 1280 720"><defs><style>.cls-1,.cls-10,.cls-11,.cls-12,.cls-19,.cls-2,.cls-3,.cls-4,.cls-5,.cls-6,.cls-7,.cls-8,.cls-9{fill:none;}.cls-1,.cls-10,.cls-11,.cls-12,.cls-2,.cls-3,.cls-5,.cls-6,.cls-7,.cls-8,.cls-9{clip-rule:evenodd;}.cls-2{clip-path:url(#clip-path);}.cls-3{clip-path:url(#clip-path-2);}.cls-5{clip-path:url(#clip-path-3);}.cls-6{clip-path:url(#clip-path-4);}.cls-7{clip-path:url(#clip-path-5);}.cls-8{clip-path:url(#clip-path-6);}.cls-9{clip-path:url(#clip-path-7);}.cls-10{clip-path:url(#clip-path-8);}.cls-11{clip-path:url(#clip-path-9);}.cls-12{clip-path:url(#clip-path-10);}.cls-13{clip-path:url(#clip-path-11);}.cls-14{clip-path:url(#clip-path-12);}.cls-15{fill:#424242;}.cls-16{fill:#721538;}.cls-17{clip-path:url(#clip-path-13);}.cls-18{clip-path:url(#clip-path-14);}.cls-19{stroke:#707071;stroke-miterlimit:10;stroke-width:5px;}.cls-20{clip-path:url(#clip-path-15);}.cls-21{clip-path:url(#clip-path-16);}.cls-22{clip-path:url(#clip-path-17);}.cls-23{clip-path:url(#clip-path-18);}.cls-24{clip-path:url(#clip-path-19);}.cls-25{clip-path:url(#clip-path-20);}.cls-26{clip-path:url(#clip-path-21);}.cls-27{clip-path:url(#clip-path-22);}.cls-28{clip-path:url(#clip-path-23);}.cls-29{clip-path:url(#clip-path-24);}.cls-30{clip-path:url(#clip-path-25);}.cls-31{clip-path:url(#clip-path-26);}.cls-32{clip-path:url(#clip-path-27);}.cls-33{clip-path:url(#clip-path-28);}.cls-34{clip-path:url(#clip-path-29);}.cls-35{clip-path:url(#clip-path-30);}.cls-36{fill:url(#linear-gradient);}.cls-37{fill:url(#linear-gradient-2);}.cls-38{isolation:isolate;opacity:0.44;fill:url(#radial-gradient);}</style><clipPath id="clip-path"><polygon class="cls-1" points="69.57 418.33 170.28 418.33 170.28 320.78 69.57 320.78 69.57 418.33 69.57 418.33"/></clipPath><clipPath id="clip-path-2"><polygon class="cls-1" points="39.92 255.82 189.92 255.82 189.92 105.83 39.92 105.83 39.92 255.82 39.92 255.82"/></clipPath><clipPath id="clip-path-3"><polygon class="cls-1" points="565 255.82 715 255.82 715 105.83 565 105.83 565 255.82 565 255.82"/></clipPath><clipPath id="clip-path-4"><polygon class="cls-1" points="827.54 255.82 977.54 255.82 977.54 105.83 827.54 105.83 827.54 255.82 827.54 255.82"/></clipPath><clipPath id="clip-path-5"><polygon class="cls-1" points="565 614.17 715 614.17 715 464.18 565 464.18 565 614.17 565 614.17"/></clipPath><clipPath id="clip-path-6"><polygon class="cls-1" points="302.46 614.17 452.46 614.17 452.46 464.18 302.46 464.18 302.46 614.17 302.46 614.17"/></clipPath><clipPath id="clip-path-7"><polygon class="cls-1" points="827.54 614.17 977.54 614.17 977.54 464.18 827.54 464.18 827.54 614.17 827.54 614.17"/></clipPath><clipPath id="clip-path-8"><polygon class="cls-1" points="1090.08 614.17 1240.08 614.17 1240.08 464.18 1090.08 464.18 1090.08 614.17 1090.08 614.17"/></clipPath><clipPath id="clip-path-9"><polygon class="cls-1" points="1112.24 418.33 1212.95 418.33 1212.95 320.78 1112.24 320.78 1112.24 418.33 1112.24 418.33"/></clipPath><clipPath id="clip-path-10"><polygon class="cls-1" points="302.46 255.82 452.46 255.82 452.46 105.83 302.46 105.83 302.46 255.82 302.46 255.82"/></clipPath><clipPath id="clip-path-11"><polygon class="cls-2" points="69.57 320.78 170.28 320.78 170.28 418.33 69.57 418.33 69.57 320.78 69.57 320.78"/></clipPath><clipPath id="clip-path-12"><polygon class="cls-4" points="69.57 418.33 170.28 418.33 170.28 320.78 69.57 320.78 69.57 418.33 69.57 418.33"/></clipPath><clipPath id="clip-path-13"><polygon class="cls-11" points="1112.24 320.78 1212.95 320.78 1212.95 418.33 1112.24 418.33 1112.24 320.78 1112.24 320.78"/></clipPath><clipPath id="clip-path-14"><polygon class="cls-4" points="1112.24 418.33 1212.95 418.33 1212.95 320.78 1112.24 320.78 1112.24 418.33 1112.24 418.33"/></clipPath><clipPath id="clip-path-15"><polygon class="cls-12" points="302.46 105.83 452.46 105.83 452.46 255.82 302.46 255.82 302.46 105.83 302.46 105.83"/></clipPath><clipPath id="clip-path-16"><polygon class="cls-4" points="302.46 255.82 452.46 255.82 452.46 105.83 302.46 105.83 302.46 255.82 302.46 255.82"/></clipPath><clipPath id="clip-path-17"><polygon class="cls-3" points="39.92 105.83 189.92 105.83 189.92 255.82 39.92 255.82 39.92 105.83 39.92 105.83"/></clipPath><clipPath id="clip-path-18"><polygon class="cls-4" points="39.92 255.82 189.92 255.82 189.92 105.83 39.92 105.83 39.92 255.82 39.92 255.82"/></clipPath><clipPath id="clip-path-19"><polygon class="cls-5" points="565 105.83 715 105.83 715 255.82 565 255.82 565 105.83 565 105.83"/></clipPath><clipPath id="clip-path-20"><polygon class="cls-4" points="565 255.82 715 255.82 715 105.83 565 105.83 565 255.82 565 255.82"/></clipPath><clipPath id="clip-path-21"><polygon class="cls-6" points="827.54 105.83 977.54 105.83 977.54 255.82 827.54 255.82 827.54 105.83 827.54 105.83"/></clipPath><clipPath id="clip-path-22"><polygon class="cls-4" points="827.54 255.82 977.54 255.82 977.54 105.83 827.54 105.83 827.54 255.82 827.54 255.82"/></clipPath><clipPath id="clip-path-23"><polygon class="cls-7" points="565 464.18 715 464.18 715 614.17 565 614.17 565 464.18 565 464.18"/></clipPath><clipPath id="clip-path-24"><polygon class="cls-4" points="565 614.17 715 614.17 715 464.18 565 464.18 565 614.17 565 614.17"/></clipPath><clipPath id="clip-path-25"><polygon class="cls-8" points="302.46 464.18 452.46 464.18 452.46 614.17 302.46 614.17 302.46 464.18 302.46 464.18"/></clipPath><clipPath id="clip-path-26"><polygon class="cls-4" points="302.46 614.17 452.46 614.17 452.46 464.18 302.46 464.18 302.46 614.17 302.46 614.17"/></clipPath><clipPath id="clip-path-27"><polygon class="cls-9" points="827.54 464.18 977.54 464.18 977.54 614.17 827.54 614.17 827.54 464.18 827.54 464.18"/></clipPath><clipPath id="clip-path-28"><polygon class="cls-4" points="827.54 614.17 977.54 614.17 977.54 464.18 827.54 464.18 827.54 614.17 827.54 614.17"/></clipPath><clipPath id="clip-path-29"><polygon class="cls-10" points="1090.08 464.18 1240.08 464.18 1240.08 614.17 1090.08 614.17 1090.08 464.18 1090.08 464.18"/></clipPath><clipPath id="clip-path-30"><polygon class="cls-4" points="1090.08 614.17 1240.08 614.17 1240.08 464.18 1090.08 464.18 1090.08 614.17 1090.08 614.17"/></clipPath><linearGradient id="linear-gradient" x1="-1079.13" y1="-330.32" x2="-881.36" y2="-160.16" gradientTransform="translate(1650.11 236.46) scale(0.56 0.57)" gradientUnits="userSpaceOnUse"><stop offset="0" stop-color="#5c9fd3"/><stop offset="1" stop-color="#316a99"/></linearGradient><linearGradient id="linear-gradient-2" x1="-804.81" y1="-57.23" x2="-875.44" y2="-157.16" gradientTransform="translate(1650.11 236.46) scale(0.56 0.57)" gradientUnits="userSpaceOnUse"><stop offset="0" stop-color="#ffd53d"/><stop offset="1" stop-color="#fee875"/></linearGradient><radialGradient id="radial-gradient" cx="1784.79" cy="-899.22" r="52.7" gradientTransform="matrix(0, -0.24, 1.05, 0, 2097.66, 690.16)" gradientUnits="userSpaceOnUse"><stop offset="0" stop-color="#b9b9b9" stop-opacity="0.5"/><stop offset="1" stop-color="#7f8080" stop-opacity="0"/></radialGradient></defs><g id="primary"><g id="pcs"><g class="cls-13"><g class="cls-14"><path class="cls-15" d="M86.27,380H83.7a.95.95,0,0,1,0-1.89h2.57a.95.95,0,0,1,0,1.89Z"/><path class="cls-15" d="M94.5,380H91.91a.95.95,0,0,1,0-1.89H94.5a.95.95,0,0,1,0,1.89Z"/><path class="cls-15" d="M165.82,322.66H75.89a4.46,4.46,0,0,0-4.45,4.47v53.51a4.46,4.46,0,0,0,4.45,4.47h34.65v3.08H76.9a1.07,1.07,0,0,0-1.05,1.06v28a1.06,1.06,0,0,0,1.05,1.06h87.9a1.06,1.06,0,0,0,1-1.06v-28a1.06,1.06,0,0,0-1-1.06H131.2v-3.08h34.62a4.46,4.46,0,0,0,4.45-4.47V327.13a4.46,4.46,0,0,0-4.45-4.47Zm-2.07,93.53H78V390.33h85.8v25.86Zm-50.39-28v-3.08h15v3.08Zm54.09-7.55a1.64,1.64,0,0,1-1.63,1.64H75.89a1.64,1.64,0,0,1-1.64-1.64v-5.2h93.2v5.2Zm0-7.09H74.25V327.13a1.64,1.64,0,0,1,1.64-1.64h89.93a1.64,1.64,0,0,1,1.63,1.64Z"/><polygon class="cls-15" points="81.56 392.97 85.95 392.97 85.95 396.83 81.56 396.83 81.56 392.97 81.56 392.97"/><polygon class="cls-15" points="87.85 392.97 92.25 392.97 92.25 396.83 87.85 396.83 87.85 392.97 87.85 392.97"/><polygon class="cls-15" points="94.14 392.97 98.54 392.97 98.54 396.83 94.14 396.83 94.14 392.97 94.14 392.97"/><polygon class="cls-15" points="100.44 392.97 104.83 392.97 104.83 396.83 100.44 396.83 100.44 392.97 100.44 392.97"/><polygon class="cls-15" points="106.73 392.97 111.12 392.97 111.12 396.83 106.73 396.83 106.73 392.97 106.73 392.97"/><polygon class="cls-15" points="113.02 392.97 117.42 392.97 117.42 396.83 113.02 396.83 113.02 392.97 113.02 392.97"/><polygon class="cls-15" points="119.31 392.97 123.71 392.97 123.71 396.83 119.31 396.83 119.31 392.97 119.31 392.97"/><polygon class="cls-15" points="125.6 392.97 130 392.97 130 396.83 125.6 396.83 125.6 392.97 125.6 392.97"/><polygon class="cls-15" points="131.9 392.97 136.29 392.97 136.29 396.83 131.9 396.83 131.9 392.97 131.9 392.97"/><polygon class="cls-15" points="138.19 392.97 142.58 392.97 142.58 396.83 138.19 396.83 138.19 392.97 138.19 392.97"/><polygon class="cls-15" points="144.46 392.97 148.86 392.97 148.86 396.83 144.46 396.83 144.46 392.97 144.46 392.97"/><polygon class="cls-15" points="150.75 392.97 157.82 392.97 157.82 396.83 150.75 396.83 150.75 392.97 150.75 392.97"/><polygon class="cls-15" points="83.89 398.43 88.28 398.43 88.28 402.29 83.89 402.29 83.89 398.43 83.89 398.43"/><polygon class="cls-15" points="90.16 398.43 94.56 398.43 94.56 402.29 90.16 402.29 90.16 398.43 90.16 398.43"/><polygon class="cls-15" points="96.45 398.43 100.85 398.43 100.85 402.29 96.45 402.29 96.45 398.43 96.45 398.43"/><polygon class="cls-15" points="102.75 398.43 107.14 398.43 107.14 402.29 102.75 402.29 102.75 398.43 102.75 398.43"/><polygon class="cls-15" points="109.04 398.43 113.43 398.43 113.43 402.29 109.04 402.29 109.04 398.43 109.04 398.43"/><polygon class="cls-15" points="115.33 398.43 119.72 398.43 119.72 402.29 115.33 402.29 115.33 398.43 115.33 398.43"/><polygon class="cls-15" points="121.62 398.43 126.02 398.43 126.02 402.29 121.62 402.29 121.62 398.43 121.62 398.43"/><polygon class="cls-15" points="127.91 398.43 132.31 398.43 132.31 402.29 127.91 402.29 127.91 398.43 127.91 398.43"/><polygon class="cls-15" points="134.21 398.43 138.6 398.43 138.6 402.29 134.21 402.29 134.21 398.43 134.21 398.43"/><polygon class="cls-15" points="140.5 398.43 144.89 398.43 144.89 402.29 140.5 402.29 140.5 398.43 140.5 398.43"/><polygon class="cls-15" points="146.79 398.43 151.19 398.43 151.19 402.29 146.79 402.29 146.79 398.43 146.79 398.43"/><polygon class="cls-15" points="153.08 398.43 160.15 398.43 160.15 402.29 153.08 402.29 153.08 398.43 153.08 398.43"/><polygon class="cls-15" points="81.75 404.06 86.14 404.06 86.14 407.92 81.75 407.92 81.75 404.06 81.75 404.06"/><polygon class="cls-15" points="88.04 404.06 92.43 404.06 92.43 407.92 88.04 407.92 88.04 404.06 88.04 404.06"/><polygon class="cls-15" points="94.31 404.06 98.71 404.06 98.71 407.92 94.31 407.92 94.31 404.06 94.31 404.06"/><polygon class="cls-15" points="100.6 404.06 105 404.06 105 407.92 100.6 407.92 100.6 404.06 100.6 404.06"/><polygon class="cls-15" points="106.9 404.06 111.29 404.06 111.29 407.92 106.9 407.92 106.9 404.06 106.9 404.06"/><polygon class="cls-15" points="113.19 404.06 117.58 404.06 117.58 407.92 113.19 407.92 113.19 404.06 113.19 404.06"/><polygon class="cls-15" points="119.48 404.06 123.88 404.06 123.88 407.92 119.48 407.92 119.48 404.06 119.48 404.06"/><polygon class="cls-15" points="125.77 404.06 130.17 404.06 130.17 407.92 125.77 407.92 125.77 404.06 125.77 404.06"/><polygon class="cls-15" points="132.06 404.06 136.46 404.06 136.46 407.92 132.06 407.92 132.06 404.06 132.06 404.06"/><polygon class="cls-15" points="138.36 404.06 142.75 404.06 142.75 407.92 138.36 407.92 138.36 404.06 138.36 404.06"/><polygon class="cls-15" points="144.65 404.06 149.04 404.06 149.04 407.92 144.65 407.92 144.65 404.06 144.65 404.06"/><polygon class="cls-15" points="150.94 404.06 158 404.06 158 407.92 150.94 407.92 150.94 404.06 150.94 404.06"/><polygon class="cls-15" points="82.1 409.69 86.5 409.69 86.5 413.55 82.1 413.55 82.1 409.69 82.1 409.69"/><polygon class="cls-15" points="88.86 409.69 134.45 409.69 134.45 413.55 88.86 413.55 88.86 409.69 88.86 409.69"/><polygon class="cls-15" points="136.85 409.69 141.25 409.69 141.25 413.55 136.85 413.55 136.85 409.69 136.85 409.69"/><polygon class="cls-15" points="143.09 409.69 147.49 409.69 147.49 413.55 143.09 413.55 143.09 409.69 143.09 409.69"/></g></g><path class="cls-16" d="M124.41,372.84V355h2.25l.23,2.62v15.19Zm6-5.16a3.78,3.78,0,0,1-2.3-.65,2.45,2.45,0,0,1-1-1.83h-1.08l.84-3.54a4.75,4.75,0,0,0,.76,2.92,3,3,0,0,0,4.49-.07,5.32,5.32,0,0,0,.78-3.16,5.84,5.84,0,0,0-.78-3.32,2.9,2.9,0,0,0-4.49-.13,4.71,4.71,0,0,0-.76,2.92l-.84-3.54h1a2.62,2.62,0,0,1,1.06-1.83,3.87,3.87,0,0,1,2.35-.66,4.34,4.34,0,0,1,3.7,1.67,8,8,0,0,1,1.26,4.89,7.56,7.56,0,0,1-1.26,4.73A4.4,4.4,0,0,1,130.42,367.68Z"/><path class="cls-16" d="M144.73,367.68a6.77,6.77,0,0,1-4.91-1.67,6.37,6.37,0,0,1-1.73-4.8,6.51,6.51,0,0,1,1.64-4.73,6.19,6.19,0,0,1,4.67-1.69,6.64,6.64,0,0,1,3.11.68,4,4,0,0,1,1.85,1.9l-1.91,1.44a3.79,3.79,0,0,0-1.35-1.32,3.6,3.6,0,0,0-1.79-.47,3.48,3.48,0,0,0-2.73,1.06,5.14,5.14,0,0,0,.17,6.26,4.48,4.48,0,0,0,3.26,1.12,16.56,16.56,0,0,0,1.73-.09c.58-.05,1.14-.12,1.69-.22l.28,2.18a12.76,12.76,0,0,1-2,.28C146,367.66,145.38,367.68,144.73,367.68Z"/><path class="cls-16" d="M152.56,367.45v-2.23H157v2.23Zm.23-12.87v-2.37l4-1.4v2.41Zm4,12.87V350.81h2.35v16.64Zm2.11,0v-2.23h4v2.23Z"/><g class="cls-17"><g class="cls-18"><path class="cls-15" d="M1128.94,380h-2.57a.95.95,0,0,1,0-1.89h2.57a.95.95,0,0,1,0,1.89Z"/><path class="cls-15" d="M1137.17,380h-2.6a.95.95,0,0,1,0-1.89h2.6a.95.95,0,0,1,0,1.89Z"/><path class="cls-15" d="M1208.48,322.66h-89.93a4.46,4.46,0,0,0-4.45,4.47v53.51a4.46,4.46,0,0,0,4.45,4.47h34.66v3.08h-33.64a1.07,1.07,0,0,0-1,1.06v28a1.06,1.06,0,0,0,1,1.06h87.9a1.06,1.06,0,0,0,1-1.06v-28a1.07,1.07,0,0,0-1-1.06h-33.6v-3.08h34.61a4.47,4.47,0,0,0,4.46-4.47V327.13a4.47,4.47,0,0,0-4.46-4.47Zm-2.06,93.53h-85.8V390.33h85.8v25.86Zm-50.4-28v-3.08h15v3.08Zm54.1-7.55a1.64,1.64,0,0,1-1.64,1.64h-89.93a1.64,1.64,0,0,1-1.63-1.64v-5.2h93.2v5.2Zm0-7.09h-93.2V327.13a1.64,1.64,0,0,1,1.63-1.64h89.93a1.64,1.64,0,0,1,1.64,1.64Z"/><polygon class="cls-15" points="1124.23 392.97 1128.62 392.97 1128.62 396.83 1124.23 396.83 1124.23 392.97 1124.23 392.97"/><polygon class="cls-15" points="1130.52 392.97 1134.91 392.97 1134.91 396.83 1130.52 396.83 1130.52 392.97 1130.52 392.97"/><polygon class="cls-15" points="1136.81 392.97 1141.2 392.97 1141.2 396.83 1136.81 396.83 1136.81 392.97 1136.81 392.97"/><polygon class="cls-15" points="1143.1 392.97 1147.5 392.97 1147.5 396.83 1143.1 396.83 1143.1 392.97 1143.1 392.97"/><polygon class="cls-15" points="1149.39 392.97 1153.79 392.97 1153.79 396.83 1149.39 396.83 1149.39 392.97 1149.39 392.97"/><polygon class="cls-15" points="1155.69 392.97 1160.08 392.97 1160.08 396.83 1155.69 396.83 1155.69 392.97 1155.69 392.97"/><polygon class="cls-15" points="1161.98 392.97 1166.37 392.97 1166.37 396.83 1161.98 396.83 1161.98 392.97 1161.98 392.97"/><polygon class="cls-15" points="1168.27 392.97 1172.67 392.97 1172.67 396.83 1168.27 396.83 1168.27 392.97 1168.27 392.97"/><polygon class="cls-15" points="1174.56 392.97 1178.96 392.97 1178.96 396.83 1174.56 396.83 1174.56 392.97 1174.56 392.97"/><polygon class="cls-15" points="1180.86 392.97 1185.25 392.97 1185.25 396.83 1180.86 396.83 1180.86 392.97 1180.86 392.97"/><polygon class="cls-15" points="1187.13 392.97 1191.52 392.97 1191.52 396.83 1187.13 396.83 1187.13 392.97 1187.13 392.97"/><polygon class="cls-15" points="1193.42 392.97 1200.48 392.97 1200.48 396.83 1193.42 396.83 1193.42 392.97 1193.42 392.97"/><polygon class="cls-15" points="1126.56 398.43 1130.95 398.43 1130.95 402.29 1126.56 402.29 1126.56 398.43 1126.56 398.43"/><polygon class="cls-15" points="1132.83 398.43 1137.22 398.43 1137.22 402.29 1132.83 402.29 1132.83 398.43 1132.83 398.43"/><polygon class="cls-15" points="1139.12 398.43 1143.52 398.43 1143.52 402.29 1139.12 402.29 1139.12 398.43 1139.12 398.43"/><polygon class="cls-15" points="1145.41 398.43 1149.81 398.43 1149.81 402.29 1145.41 402.29 1145.41 398.43 1145.41 398.43"/><polygon class="cls-15" points="1151.7 398.43 1156.1 398.43 1156.1 402.29 1151.7 402.29 1151.7 398.43 1151.7 398.43"/><polygon class="cls-15" points="1158 398.43 1162.39 398.43 1162.39 402.29 1158 402.29 1158 398.43 1158 398.43"/><polygon class="cls-15" points="1164.29 398.43 1168.68 398.43 1168.68 402.29 1164.29 402.29 1164.29 398.43 1164.29 398.43"/><polygon class="cls-15" points="1170.58 398.43 1174.98 398.43 1174.98 402.29 1170.58 402.29 1170.58 398.43 1170.58 398.43"/><polygon class="cls-15" points="1176.87 398.43 1181.27 398.43 1181.27 402.29 1176.87 402.29 1176.87 398.43 1176.87 398.43"/><polygon class="cls-15" points="1183.16 398.43 1187.56 398.43 1187.56 402.29 1183.16 402.29 1183.16 398.43 1183.16 398.43"/><polygon class="cls-15" points="1189.46 398.43 1193.85 398.43 1193.85 402.29 1189.46 402.29 1189.46 398.43 1189.46 398.43"/><polygon class="cls-15" points="1195.75 398.43 1202.81 398.43 1202.81 402.29 1195.75 402.29 1195.75 398.43 1195.75 398.43"/><polygon class="cls-15" points="1124.41 404.06 1128.81 404.06 1128.81 407.92 1124.41 407.92 1124.41 404.06 1124.41 404.06"/><polygon class="cls-15" points="1130.71 404.06 1135.1 404.06 1135.1 407.92 1130.71 407.92 1130.71 404.06 1130.71 404.06"/><polygon class="cls-15" points="1136.98 404.06 1141.37 404.06 1141.37 407.92 1136.98 407.92 1136.98 404.06 1136.98 404.06"/><polygon class="cls-15" points="1143.27 404.06 1147.67 404.06 1147.67 407.92 1143.27 407.92 1143.27 404.06 1143.27 404.06"/><polygon class="cls-15" points="1149.56 404.06 1153.96 404.06 1153.96 407.92 1149.56 407.92 1149.56 404.06 1149.56 404.06"/><polygon class="cls-15" points="1155.86 404.06 1160.25 404.06 1160.25 407.92 1155.86 407.92 1155.86 404.06 1155.86 404.06"/><polygon class="cls-15" points="1162.15 404.06 1166.54 404.06 1166.54 407.92 1162.15 407.92 1162.15 404.06 1162.15 404.06"/><polygon class="cls-15" points="1168.44 404.06 1172.84 404.06 1172.84 407.92 1168.44 407.92 1168.44 404.06 1168.44 404.06"/><polygon class="cls-15" points="1174.73 404.06 1179.13 404.06 1179.13 407.92 1174.73 407.92 1174.73 404.06 1174.73 404.06"/><polygon class="cls-15" points="1181.02 404.06 1185.42 404.06 1185.42 407.92 1181.02 407.92 1181.02 404.06 1181.02 404.06"/><polygon class="cls-15" points="1187.32 404.06 1191.71 404.06 1191.71 407.92 1187.32 407.92 1187.32 404.06 1187.32 404.06"/><polygon class="cls-15" points="1193.61 404.06 1200.67 404.06 1200.67 407.92 1193.61 407.92 1193.61 404.06 1193.61 404.06"/><polygon class="cls-15" points="1124.77 409.69 1129.16 409.69 1129.16 413.55 1124.77 413.55 1124.77 409.69 1124.77 409.69"/><polygon class="cls-15" points="1131.53 409.69 1177.12 409.69 1177.12 413.55 1131.53 413.55 1131.53 409.69 1131.53 409.69"/><polygon class="cls-15" points="1179.52 409.69 1183.92 409.69 1183.92 413.55 1179.52 413.55 1179.52 409.69 1179.52 409.69"/><polygon class="cls-15" points="1185.76 409.69 1190.15 409.69 1190.15 413.55 1185.76 413.55 1185.76 409.69 1185.76 409.69"/></g></g><path class="cls-16" d="M1169.14,371.37V353.56h2.25l.24,2.63v15.18Zm6-5.15a3.72,3.72,0,0,1-2.3-.66,2.51,2.51,0,0,1-1-1.83h-1.08l.85-3.54a4.8,4.8,0,0,0,.75,2.92,2.62,2.62,0,0,0,2.22,1,2.65,2.65,0,0,0,2.28-1.07,5.38,5.38,0,0,0,.77-3.15,5.94,5.94,0,0,0-.77-3.33,2.6,2.6,0,0,0-2.28-1.12,2.64,2.64,0,0,0-2.22,1,4.82,4.82,0,0,0-.75,2.92l-.85-3.54h1a2.65,2.65,0,0,1,1.06-1.83,3.89,3.89,0,0,1,2.35-.65,4.35,4.35,0,0,1,3.71,1.66,8.1,8.1,0,0,1,1.25,4.9,7.59,7.59,0,0,1-1.25,4.72A4.43,4.43,0,0,1,1175.15,366.22Z"/><path class="cls-16" d="M1189.46,366.22a6.78,6.78,0,0,1-4.9-1.67,6.4,6.4,0,0,1-1.73-4.8,6.59,6.59,0,0,1,1.63-4.74,6.22,6.22,0,0,1,4.67-1.68,6.69,6.69,0,0,1,3.12.67,3.94,3.94,0,0,1,1.84,1.9l-1.91,1.45a3.74,3.74,0,0,0-1.35-1.33,3.88,3.88,0,0,0-4.52.59,5.18,5.18,0,0,0,.17,6.26,4.45,4.45,0,0,0,3.26,1.12c.58,0,1.16,0,1.74-.08s1.14-.13,1.69-.22l.28,2.18a14.23,14.23,0,0,1-2,.28C1190.78,366.19,1190.11,366.22,1189.46,366.22Z"/><path class="cls-16" d="M1197.08,366v-2.62a19.67,19.67,0,0,0,5.76-4.46,7.45,7.45,0,0,0,1.9-4.78,2.94,2.94,0,0,0-.7-2.14,2.86,2.86,0,0,0-2.13-.72,4.3,4.3,0,0,0-2,.55,5.71,5.71,0,0,0-1.77,1.47l-1.62-1.61a5.74,5.74,0,0,1,2.3-1.86,7.18,7.18,0,0,1,3.12-.7,5.48,5.48,0,0,1,3.94,1.25,5,5,0,0,1,1.31,3.76,8.5,8.5,0,0,1-1.6,4.86,17.4,17.4,0,0,1-4.87,4.47V366Zm.7,0V363.8h10.13V366Z"/></g><g id="hostnames"><path class="cls-16" d="M139.35,220a6.77,6.77,0,0,1-4.91-1.67,6.36,6.36,0,0,1-1.72-4.8,6.5,6.5,0,0,1,1.63-4.73A6.19,6.19,0,0,1,139,207.1a6.77,6.77,0,0,1,3.11.67,3.94,3.94,0,0,1,1.85,1.91l-1.91,1.44a3.71,3.71,0,0,0-1.35-1.32,3.88,3.88,0,0,0-4.52.59,5.14,5.14,0,0,0,.17,6.26,4.49,4.49,0,0,0,3.26,1.12,16.56,16.56,0,0,0,1.73-.09c.58-.05,1.14-.13,1.69-.22l.28,2.18a14.09,14.09,0,0,1-2,.28C140.66,220,140,220,139.35,220Z"/><path class="cls-16" d="M153.41,220a6.72,6.72,0,0,1-4.9-1.67,6.33,6.33,0,0,1-1.73-4.8,7,7,0,0,1,1.46-4.73,5.18,5.18,0,0,1,4.14-1.69,5,5,0,0,1,3.9,1.52,6.45,6.45,0,0,1,1.37,4.43,16,16,0,0,1-.07,1.6h-8.72v-1.9h6.54a3.73,3.73,0,0,0-.79-2.57,2.8,2.8,0,0,0-2.21-.9,3,3,0,0,0-2.45,1.08,4.73,4.73,0,0,0-.87,3,4.29,4.29,0,0,0,1.2,3.28,4.8,4.8,0,0,0,3.41,1.12,12.83,12.83,0,0,0,1.53-.09,14.07,14.07,0,0,0,1.52-.24l.3,2.18a16.47,16.47,0,0,1-2,.27Q154.11,220,153.41,220Z"/><path class="cls-16" d="M161.24,219.76v-2.23h4.45v2.23Zm.23-12.87v-2.37l4-1.4v2.41Zm4,12.87V203.12h2.34v16.64Zm2.11,0v-2.23h4v2.23Z"/><path class="cls-16" d="M396.4,225.15V207.33h2.25l.23,2.63v15.19Zm6-5.16a3.72,3.72,0,0,1-2.3-.66,2.41,2.41,0,0,1-1-1.82H398l.84-3.54a4.75,4.75,0,0,0,.76,2.92,3,3,0,0,0,4.49-.07,5.36,5.36,0,0,0,.78-3.16,5.85,5.85,0,0,0-.78-3.33,2.91,2.91,0,0,0-4.49-.12,4.7,4.7,0,0,0-.76,2.91l-.84-3.54h1a2.58,2.58,0,0,1,1.06-1.82,3.87,3.87,0,0,1,2.35-.66,4.36,4.36,0,0,1,3.7,1.66,8.05,8.05,0,0,1,1.26,4.9,7.56,7.56,0,0,1-1.26,4.73A4.4,4.4,0,0,1,402.41,220Z"/><path class="cls-16" d="M416.72,220a6.81,6.81,0,0,1-4.91-1.67,6.37,6.37,0,0,1-1.73-4.8,7,7,0,0,1,1.47-4.73,5.18,5.18,0,0,1,4.14-1.69,5,5,0,0,1,3.89,1.52,6.41,6.41,0,0,1,1.38,4.43,16,16,0,0,1-.07,1.6h-8.72v-1.9h6.54a3.73,3.73,0,0,0-.8-2.57,2.78,2.78,0,0,0-2.2-.9,3,3,0,0,0-2.46,1.08,4.73,4.73,0,0,0-.87,3,4.29,4.29,0,0,0,1.2,3.28,4.81,4.81,0,0,0,3.42,1.12,12.79,12.79,0,0,0,1.52-.09c.5-.05,1-.14,1.53-.24l.3,2.18a16.61,16.61,0,0,1-2,.27C417.73,220,417.19,220,416.72,220Z"/><path class="cls-16" d="M424.55,219.76v-2.23H429v2.23Zm.23-12.87v-2.37l4-1.4v2.41Zm4,12.87V203.12h2.35v16.64Zm2.11,0v-2.23h4v2.23Z"/><path class="cls-16" d="M660.46,225.15V207.33h2.25L663,210v15.19Zm6-5.16a3.73,3.73,0,0,1-2.31-.66,2.47,2.47,0,0,1-1-1.82H662.1L663,214a4.82,4.82,0,0,0,.75,2.92,3,3,0,0,0,4.5-.07,5.44,5.44,0,0,0,.77-3.16,5.94,5.94,0,0,0-.77-3.33,2.92,2.92,0,0,0-4.5-.12,4.77,4.77,0,0,0-.75,2.91l-.85-3.54h1a2.54,2.54,0,0,1,1.06-1.82,3.85,3.85,0,0,1,2.35-.66,4.37,4.37,0,0,1,3.7,1.66,8.12,8.12,0,0,1,1.25,4.9,7.62,7.62,0,0,1-1.25,4.73A4.41,4.41,0,0,1,666.48,220Z"/><path class="cls-16" d="M674.55,219.76v-2.23H679v2.23Zm.23-12.87v-2.37l4-1.4v2.41Zm4,12.87V203.12h2.34v16.64Zm2.11,0v-2.23h4v2.23Z"/><path class="cls-16" d="M921.37,225.15V207.34h2.25l.23,2.62v15.19Zm6-5.16a3.81,3.81,0,0,1-2.31-.65,2.51,2.51,0,0,1-1-1.83H923l.84-3.54a4.75,4.75,0,0,0,.76,2.92,3,3,0,0,0,4.49-.07,5.36,5.36,0,0,0,.77-3.16,5.82,5.82,0,0,0-.77-3.32,2.9,2.9,0,0,0-4.49-.13,4.7,4.7,0,0,0-.76,2.91l-.84-3.53h1a2.58,2.58,0,0,1,1.06-1.83,3.85,3.85,0,0,1,2.35-.66,4.35,4.35,0,0,1,3.7,1.67,8,8,0,0,1,1.25,4.89,7.56,7.56,0,0,1-1.25,4.73A4.41,4.41,0,0,1,927.38,220Z"/><path class="cls-16" d="M941.69,220a6.75,6.75,0,0,1-4.91-1.67,6.37,6.37,0,0,1-1.73-4.8,7,7,0,0,1,1.47-4.73,5.15,5.15,0,0,1,4.13-1.69,5,5,0,0,1,3.9,1.52,6.41,6.41,0,0,1,1.38,4.43c0,.57,0,1.11-.07,1.6h-8.72v-1.9h6.54a3.73,3.73,0,0,0-.8-2.57,2.78,2.78,0,0,0-2.2-.9,3,3,0,0,0-2.46,1.08,4.73,4.73,0,0,0-.87,3,4.29,4.29,0,0,0,1.2,3.28,4.81,4.81,0,0,0,3.42,1.12,12.79,12.79,0,0,0,1.52-.09,13.69,13.69,0,0,0,1.52-.24l.31,2.18a16.87,16.87,0,0,1-2,.27C942.69,220,942.15,220,941.69,220Z"/><path class="cls-16" d="M949.3,219.76v-2.63a19.66,19.66,0,0,0,5.76-4.45A7.49,7.49,0,0,0,957,207.9a3,3,0,0,0-.71-2.15,2.9,2.9,0,0,0-2.13-.71,4.19,4.19,0,0,0-2,.55,5.68,5.68,0,0,0-1.77,1.46l-1.62-1.6a5.66,5.66,0,0,1,2.3-1.86,7.19,7.19,0,0,1,3.12-.71,5.51,5.51,0,0,1,3.94,1.25,5,5,0,0,1,1.31,3.77,8.52,8.52,0,0,1-1.6,4.86,17.4,17.4,0,0,1-4.87,4.47v2.53Zm.71,0v-2.18h10.12v2.18Z"/><path class="cls-16" d="M395.73,583.38V565.56H398l.24,2.63v15.19Zm6-5.16a3.73,3.73,0,0,1-2.31-.66,2.47,2.47,0,0,1-1-1.82h-1.08l.85-3.54a4.82,4.82,0,0,0,.75,2.92,3,3,0,0,0,4.5-.08,5.38,5.38,0,0,0,.77-3.15,5.94,5.94,0,0,0-.77-3.33,2.92,2.92,0,0,0-4.5-.12,4.77,4.77,0,0,0-.75,2.91l-.85-3.54h1A2.54,2.54,0,0,1,399.4,566a3.85,3.85,0,0,1,2.35-.66,4.34,4.34,0,0,1,3.7,1.66,8.12,8.12,0,0,1,1.25,4.9,7.64,7.64,0,0,1-1.25,4.73A4.41,4.41,0,0,1,401.75,578.22Z"/><path class="cls-16" d="M416.05,578.22a6.78,6.78,0,0,1-4.9-1.67,6.37,6.37,0,0,1-1.73-4.8,7,7,0,0,1,1.47-4.73,5.15,5.15,0,0,1,4.13-1.69,5,5,0,0,1,3.9,1.52,6.41,6.41,0,0,1,1.38,4.43c0,.57,0,1.1-.07,1.6h-8.72V571h6.54a3.73,3.73,0,0,0-.8-2.57,2.79,2.79,0,0,0-2.2-.9,3,3,0,0,0-2.46,1.08,4.72,4.72,0,0,0-.87,3,4.3,4.3,0,0,0,1.2,3.29,4.81,4.81,0,0,0,3.42,1.12,12.79,12.79,0,0,0,1.52-.09c.5-.06,1-.14,1.52-.24l.31,2.18a16.87,16.87,0,0,1-2,.27Q416.76,578.22,416.05,578.22Z"/><path class="cls-16" d="M426.34,570.37l-.28-1.52a12.38,12.38,0,0,0,3-.73,4.18,4.18,0,0,0,1.7-1.17,2.38,2.38,0,0,0,.54-1.53,2,2,0,0,0-.66-1.58,2.81,2.81,0,0,0-1.89-.57,4.79,4.79,0,0,0-1.9.44,6.64,6.64,0,0,0-1.89,1.34l-1.62-1.61a6.52,6.52,0,0,1,2.5-1.77,8.64,8.64,0,0,1,3.17-.56,5.57,5.57,0,0,1,3.51,1,3.27,3.27,0,0,1,1.24,2.76,3.86,3.86,0,0,1-1,2.61A4.87,4.87,0,0,1,430.3,569v1.41Zm1.57,7.85a17.14,17.14,0,0,1-2.36-.15,12.31,12.31,0,0,1-1.9-.41l.29-2.24,1.61.42a9.62,9.62,0,0,0,2.27.22,4.85,4.85,0,0,0,2.84-.72,2.38,2.38,0,0,0,1-2,2.28,2.28,0,0,0-.58-1.59,3.54,3.54,0,0,0-1.68-1,9.05,9.05,0,0,0-2.68-.34h-.38l-.28-1.52,3.59.28a5.19,5.19,0,0,1,3.23,1.29,4,4,0,0,1,1.24,3.11A4.09,4.09,0,0,1,432.5,577,7.46,7.46,0,0,1,427.91,578.22Z"/><path class="cls-16" d="M659,583.38V565.56h2.25l.24,2.63v15.19Zm6-5.16a3.72,3.72,0,0,1-2.3-.66,2.47,2.47,0,0,1-1-1.82h-1.08l.85-3.54a4.82,4.82,0,0,0,.75,2.92,3,3,0,0,0,4.5-.08,5.38,5.38,0,0,0,.77-3.15,5.94,5.94,0,0,0-.77-3.33,2.92,2.92,0,0,0-4.5-.12,4.77,4.77,0,0,0-.75,2.91l-.85-3.54h1A2.61,2.61,0,0,1,662.7,566a3.87,3.87,0,0,1,2.35-.66,4.35,4.35,0,0,1,3.71,1.66,8.12,8.12,0,0,1,1.25,4.9,7.64,7.64,0,0,1-1.25,4.73A4.42,4.42,0,0,1,665.05,578.22Z"/><path class="cls-16" d="M672.92,578v-2.63a19.66,19.66,0,0,0,5.76-4.45,7.47,7.47,0,0,0,1.9-4.78,3,3,0,0,0-.7-2.15,2.91,2.91,0,0,0-2.14-.71,4.19,4.19,0,0,0-2,.55,5.91,5.91,0,0,0-1.77,1.46l-1.61-1.6a5.64,5.64,0,0,1,2.29-1.87,7.4,7.4,0,0,1,3.12-.7,5.51,5.51,0,0,1,3.94,1.25,5,5,0,0,1,1.31,3.77,8.42,8.42,0,0,1-1.6,4.85,17.14,17.14,0,0,1-4.87,4.48V578Zm.7,0v-2.18h10.12V578Z"/><path class="cls-16" d="M923.11,583.38V565.56h2.25l.23,2.63v15.19Zm6-5.16a3.72,3.72,0,0,1-2.3-.66,2.41,2.41,0,0,1-1-1.82h-1.08l.84-3.54a4.75,4.75,0,0,0,.76,2.92,3,3,0,0,0,4.49-.08,5.3,5.3,0,0,0,.78-3.15,5.85,5.85,0,0,0-.78-3.33,2.91,2.91,0,0,0-4.49-.12,4.7,4.7,0,0,0-.76,2.91l-.84-3.54h1a2.58,2.58,0,0,1,1.06-1.82,3.87,3.87,0,0,1,2.35-.66,4.33,4.33,0,0,1,3.7,1.66,8.05,8.05,0,0,1,1.26,4.9,7.58,7.58,0,0,1-1.26,4.73A4.4,4.4,0,0,1,929.12,578.22Z"/><path class="cls-16" d="M943.43,578.22a6.81,6.81,0,0,1-4.91-1.67,6.37,6.37,0,0,1-1.73-4.8,7,7,0,0,1,1.47-4.73,5.18,5.18,0,0,1,4.14-1.69,5,5,0,0,1,3.89,1.52,6.41,6.41,0,0,1,1.38,4.43c0,.57,0,1.1-.07,1.6h-8.72V571h6.54a3.73,3.73,0,0,0-.8-2.57,2.78,2.78,0,0,0-2.2-.9,3,3,0,0,0-2.46,1.08,4.72,4.72,0,0,0-.87,3,4.3,4.3,0,0,0,1.2,3.29,4.81,4.81,0,0,0,3.42,1.12,12.79,12.79,0,0,0,1.52-.09q.75-.09,1.53-.24l.3,2.18a16.61,16.61,0,0,1-2,.27C944.44,578.2,943.9,578.22,943.43,578.22Z"/><path class="cls-16" d="M950.13,574.26l2.34-12h2.42l-2.37,12Zm0,0,1.64-2.18h6.92v2.18Zm8.32,3.73V561.35h2.37V578Zm2.13-3.73v-2.18h1.81v2.18Z"/><path class="cls-16" d="M1190.27,578.22a6.79,6.79,0,0,1-4.91-1.67,6.37,6.37,0,0,1-1.73-4.8,6.51,6.51,0,0,1,1.64-4.73,6.19,6.19,0,0,1,4.67-1.69,6.64,6.64,0,0,1,3.11.67,4,4,0,0,1,1.85,1.91l-1.91,1.44a3.87,3.87,0,0,0-1.35-1.32,3.9,3.9,0,0,0-4.53.59,5.18,5.18,0,0,0,.17,6.26,4.51,4.51,0,0,0,3.27,1.11,16.69,16.69,0,0,0,1.73-.08c.58,0,1.14-.13,1.69-.22l.28,2.18a14,14,0,0,1-2,.28C1191.58,578.2,1190.92,578.22,1190.27,578.22Z"/><path class="cls-16" d="M1204.33,578.22a6.81,6.81,0,0,1-4.91-1.67,6.36,6.36,0,0,1-1.72-4.8,7,7,0,0,1,1.46-4.73,5.18,5.18,0,0,1,4.14-1.69,5,5,0,0,1,3.89,1.52,6.41,6.41,0,0,1,1.38,4.43c0,.57,0,1.1-.07,1.6h-8.72V571h6.54a3.68,3.68,0,0,0-.8-2.57,2.78,2.78,0,0,0-2.2-.9,3,3,0,0,0-2.45,1.08,4.67,4.67,0,0,0-.88,3,4.3,4.3,0,0,0,1.2,3.29,4.83,4.83,0,0,0,3.42,1.12,12.66,12.66,0,0,0,1.52-.09q.75-.09,1.53-.24l.3,2.18a16.47,16.47,0,0,1-2,.27Q1205,578.22,1204.33,578.22Z"/><path class="cls-16" d="M1212,578v-2.63a19.66,19.66,0,0,0,5.76-4.45,7.47,7.47,0,0,0,1.9-4.78,3,3,0,0,0-.7-2.15,2.91,2.91,0,0,0-2.14-.71,4.19,4.19,0,0,0-2,.55,5.91,5.91,0,0,0-1.77,1.46l-1.61-1.6a5.64,5.64,0,0,1,2.29-1.87,7.4,7.4,0,0,1,3.12-.7,5.51,5.51,0,0,1,3.94,1.25,5,5,0,0,1,1.31,3.77,8.42,8.42,0,0,1-1.6,4.85,17.14,17.14,0,0,1-4.87,4.48V578Zm.7,0v-2.18h10.12V578Z"/></g><g id="lines"><line class="cls-19" x1="119.93" y1="254.93" x2="119.93" y2="325.22"/><line class="cls-19" x1="1165.44" y1="416.78" x2="1165.44" y2="470.33"/><line class="cls-19" x1="187.42" y1="182.53" x2="308.6" y2="182.53"/><line class="cls-19" x1="449.81" y1="182.53" x2="570.03" y2="182.53"/><line class="cls-19" x1="712.25" y1="182.53" x2="833.36" y2="182.53"/><line class="cls-19" x1="449.36" y1="539.17" x2="570.25" y2="539.17"/><line class="cls-19" x1="711.81" y1="539.17" x2="833.36" y2="539.17"/><line class="cls-19" x1="975.58" y1="539.17" x2="1095.14" y2="539.17"/><line class="cls-19" x1="649.01" y1="253.64" x2="649.01" y2="470.67"/><line class="cls-19" x1="633.01" y1="253.64" x2="633.01" y2="470.67"/><line class="cls-19" x1="429.46" y1="234.64" x2="597.73" y2="488.41"/><line class="cls-19" x1="687.14" y1="233.97" x2="855.41" y2="487.74"/><line class="cls-19" x1="689.67" y1="488.54" x2="855.5" y2="233.17"/><line class="cls-19" x1="426.89" y1="487.74" x2="592.72" y2="232.37"/></g><g id="routers"><g class="cls-20"><g class="cls-21"><path class="cls-15" d="M379.19,255.79a73.26,73.26,0,1,1,73.28-73.26,73.27,73.27,0,0,1-73.28,73.26Zm0-141.3a68.08,68.08,0,1,0,68.1,68.08v0a68.17,68.17,0,0,0-68.1-68Z"/><path class="cls-15" d="M359.57,136.32h5.11V170H324a2.59,2.59,0,0,0,0,5.18H369.9V136.32h5.15l-7.74-13.43-7.74,13.43Z"/><path class="cls-15" d="M425.56,180.32,439,172.55l-13.41-7.74V170H391.87V126.37a2.59,2.59,0,0,0-5.18,0v48.77h38.87v5.18Z"/><path class="cls-15" d="M333.9,184.64l-13.41,7.77,13.41,7.74V195h33.69v43.35a2.59,2.59,0,1,0,5.18,0V190H333.9v-5.35Z"/><path class="cls-15" d="M435.48,189.82H386.73v38.61h-5.19l7.78,13.4,7.74-13.4h-5.15V195h43.57a2.59,2.59,0,0,0,0-5.18Z"/></g></g><g class="cls-22"><g class="cls-23"><path class="cls-15" d="M116.65,255.79a73.26,73.26,0,1,1,73.28-73.26,73.27,73.27,0,0,1-73.28,73.26Zm0-141.3a68.08,68.08,0,1,0,68.1,68.08v0a68.16,68.16,0,0,0-68.1-68Z"/><path class="cls-15" d="M97,136.32h5.11V170H61.44a2.59,2.59,0,0,0,0,5.18h45.92V136.32h5.15l-7.74-13.43L97,136.32Z"/><path class="cls-15" d="M163,180.32l13.41-7.77L163,164.81V170H129.33V126.37a2.59,2.59,0,0,0-5.18,0v48.77H163v5.18Z"/><path class="cls-15" d="M71.36,184.64,58,192.41l13.41,7.74V195h33.69v43.35a2.59,2.59,0,0,0,5.18,0V190H71.36v-5.35Z"/><path class="cls-15" d="M172.94,189.82H124.19v38.61H119l7.78,13.4,7.74-13.4h-5.15V195h43.57a2.59,2.59,0,1,0,0-5.18Z"/></g></g><g class="cls-24"><g class="cls-25"><path class="cls-15" d="M641.73,255.79A73.26,73.26,0,1,1,715,182.53a73.27,73.27,0,0,1-73.28,73.26Zm0-141.3a68.08,68.08,0,1,0,68.1,68.08v0a68.17,68.17,0,0,0-68.1-68Z"/><path class="cls-15" d="M622.11,136.32h5.11V170h-40.7a2.59,2.59,0,0,0,0,5.18h45.92V136.32h5.15l-7.74-13.43-7.74,13.43Z"/><path class="cls-15" d="M688.1,180.32l13.41-7.77-13.41-7.74V170H654.41V126.37a2.59,2.59,0,1,0-5.18,0v48.77H688.1v5.18Z"/><path class="cls-15" d="M596.44,184.64,583,192.41l13.41,7.74V195h33.69v43.35a2.59,2.59,0,0,0,5.18,0V190H596.44v-5.35Z"/><path class="cls-15" d="M698,189.82H649.27v38.61h-5.19l7.78,13.4,7.74-13.4h-5.15V195H698a2.59,2.59,0,1,0,0-5.18Z"/></g></g><g class="cls-26"><g class="cls-27"><path class="cls-15" d="M904.27,255.79a73.26,73.26,0,1,1,73.28-73.26,73.27,73.27,0,0,1-73.28,73.26Zm0-141.3a68.08,68.08,0,1,0,68.1,68.08v0a68.17,68.17,0,0,0-68.1-68Z"/><path class="cls-15" d="M884.65,136.32h5.11V170h-40.7a2.59,2.59,0,1,0,0,5.18H895V136.32h5.15l-7.74-13.43-7.74,13.43Z"/><path class="cls-15" d="M950.64,180.32l13.4-7.77-13.4-7.74V170H917V126.37a2.59,2.59,0,0,0-5.18,0v48.77h38.87v5.18Z"/><path class="cls-15" d="M859,184.64l-13.41,7.77L859,200.15V195h33.68v43.35a2.6,2.6,0,0,0,5.19,0V190H859v-5.35Z"/><path class="cls-15" d="M960.56,189.82H911.81v38.61h-5.19l7.78,13.4,7.74-13.4H917V195h43.57a2.59,2.59,0,1,0,0-5.18Z"/></g></g><g class="cls-28"><g class="cls-29"><path class="cls-15" d="M641.73,614.14A73.26,73.26,0,1,1,715,540.88a73.27,73.27,0,0,1-73.28,73.26Zm0-141.3a68.08,68.08,0,1,0,68.1,68.08v0a68.17,68.17,0,0,0-68.1-68Z"/><path class="cls-15" d="M622.11,494.67h5.11v33.64h-40.7a2.59,2.59,0,1,0,0,5.18h45.92V494.67h5.15l-7.74-13.43-7.74,13.43Z"/><path class="cls-15" d="M688.1,538.67l13.41-7.77-13.41-7.74v5.15H654.41V484.72a2.59,2.59,0,1,0-5.18,0v48.77H688.1v5.18Z"/><path class="cls-15" d="M596.44,543,583,550.76l13.41,7.74v-5.15h33.69V596.7a2.59,2.59,0,1,0,5.18,0V548.34H596.44V543Z"/><path class="cls-15" d="M698,548.17H649.27v38.61h-5.19l7.78,13.4,7.74-13.4h-5.15V553.35H698a2.59,2.59,0,0,0,0-5.18Z"/></g></g><g class="cls-30"><g class="cls-31"><path class="cls-15" d="M379.19,614.14a73.26,73.26,0,1,1,73.28-73.26,73.27,73.27,0,0,1-73.28,73.26Zm0-141.3a68.08,68.08,0,1,0,68.1,68.08v0a68.17,68.17,0,0,0-68.1-68Z"/><path class="cls-15" d="M359.57,494.67h5.11v33.64H324a2.59,2.59,0,1,0,0,5.18H369.9V494.67h5.15l-7.74-13.43-7.74,13.43Z"/><path class="cls-15" d="M425.56,538.67,439,530.9l-13.41-7.74v5.15H391.87V484.72a2.59,2.59,0,1,0-5.18,0v48.77h38.87v5.18Z"/><path class="cls-15" d="M333.9,543l-13.41,7.77,13.41,7.74v-5.15h33.69V596.7a2.59,2.59,0,1,0,5.18,0V548.34H333.9V543Z"/><path class="cls-15" d="M435.48,548.17H386.73v38.61h-5.19l7.78,13.4,7.74-13.4h-5.15V553.35h43.57a2.59,2.59,0,0,0,0-5.18Z"/></g></g><g class="cls-32"><g class="cls-33"><path class="cls-15" d="M904.27,614.14a73.26,73.26,0,1,1,73.28-73.26,73.27,73.27,0,0,1-73.28,73.26Zm0-141.3a68.08,68.08,0,1,0,68.1,68.08v0a68.17,68.17,0,0,0-68.1-68Z"/><path class="cls-15" d="M884.65,494.67h5.11v33.64h-40.7a2.59,2.59,0,1,0,0,5.18H895V494.67h5.15l-7.74-13.43-7.74,13.43Z"/><path class="cls-15" d="M950.64,538.67,964,530.9l-13.4-7.74v5.15H917V484.72a2.59,2.59,0,1,0-5.18,0v48.77h38.87v5.18Z"/><path class="cls-15" d="M859,543l-13.41,7.77L859,558.5v-5.15h33.68V596.7a2.6,2.6,0,0,0,5.19,0V548.34H859V543Z"/><path class="cls-15" d="M960.56,548.17H911.81v38.61h-5.19l7.78,13.4,7.74-13.4H917V553.35h43.57a2.59,2.59,0,0,0,0-5.18Z"/></g></g><g class="cls-34"><g class="cls-35"><path class="cls-15" d="M1166.81,614.14a73.26,73.26,0,1,1,73.28-73.26,73.27,73.27,0,0,1-73.28,73.26Zm0-141.3a68.08,68.08,0,1,0,68.1,68.08v0a68.17,68.17,0,0,0-68.1-68Z"/><path class="cls-15" d="M1147.19,494.67h5.11v33.64h-40.7a2.59,2.59,0,1,0,0,5.18h45.92V494.67h5.15l-7.74-13.43-7.74,13.43Z"/><path class="cls-15" d="M1213.18,538.67l13.4-7.77-13.4-7.74v5.15h-33.69V484.72a2.59,2.59,0,1,0-5.18,0v48.77h38.87v5.18Z"/><path class="cls-15" d="M1121.52,543l-13.41,7.77,13.41,7.74v-5.15h33.68V596.7a2.6,2.6,0,0,0,5.19,0V548.34h-38.87V543Z"/><path class="cls-15" d="M1223.09,548.17h-48.74v38.61h-5.19l7.78,13.4,7.74-13.4h-5.15V553.35h43.56a2.59,2.59,0,1,0,0-5.18Z"/></g></g></g><g id="Layer_7" data-name="Layer 7"><path id="path1948" class="cls-36" d="M1147.65,43a127.74,127.74,0,0,0-23.2,2c-20.6,3.6-24.3,11.2-24.3,25.3v18.5h48.6V95h-66.9c-14.1,0-26.5,8.5-30.4,24.7-4.5,18.5-4.7,30.1,0,49.4,3.5,14.4,11.7,24.7,25.9,24.7h16.7v-22.2c0-16.1,13.9-30.2,30.4-30.2h48.6a24.48,24.48,0,0,0,24.3-24.7V70.33c0-13.2-11.1-23.1-24.3-25.3A156.17,156.17,0,0,0,1147.65,43Zm-26.3,14.9a9.25,9.25,0,1,1-9.1,9.3A9.24,9.24,0,0,1,1121.35,57.93Z"/><path id="path1950" class="cls-37" d="M1203.45,95v21.6c0,16.7-14.2,30.8-30.4,30.8h-48.6c-13.3,0-24.3,11.4-24.3,24.7v46.3c0,13.2,11.5,20.9,24.3,24.7,15.4,4.5,30.2,5.3,48.6,0,12.2-3.5,24.3-10.7,24.3-24.7v-18.5h-48.6v-6.2h72.9c14.1,0,19.4-9.9,24.3-24.7,5.1-15.2,4.9-29.9,0-49.4-3.5-14.1-10.2-24.7-24.3-24.7h-18.2Zm-27.4,117.3a9.25,9.25,0,1,1-9.1,9.2A9.15,9.15,0,0,1,1176.05,212.33Z"/><path id="path1894" class="cls-38" d="M1214.45,262c0,7-29.2,12.6-65.2,12.6s-65.2-5.7-65.2-12.6,29.2-12.6,65.2-12.6S1214.45,255,1214.45,262Z"/></g></g></svg>