<svg xmlns="http://www.w3.org/2000/svg" viewBox="0 0 64 64"><defs><style>.cls-1{fill:#fff;}.cls-2{fill:#bfcfd4;}.cls-3{fill:#9eb4be;}.cls-4{fill:#88a2ad;}.cls-5{fill:#7c95a2;}.cls-6{fill:#748d9a;}.cls-7{fill:#77919f;}.cls-8{fill:#647f8c;}.cls-9{fill:#577583;}.cls-10{fill:#4f6e7b;}.cls-11{fill:#97adb8;}.cls-12{fill:#78929f;}.cls-13{fill:#476775;}</style></defs><g id="primary"><path class="cls-1" d="M57.9,32a10.65,10.65,0,0,0,2.17-1.87A11.29,11.29,0,0,0,61.24,16.5,13.59,13.59,0,0,0,47.8,10.62a11.18,11.18,0,0,0-2.85.79,9.31,9.31,0,0,0-.68-2.66A13.18,13.18,0,0,0,32,1,13.22,13.22,0,0,0,19.73,8.75a9,9,0,0,0-.68,2.66,11.18,11.18,0,0,0-2.85-.79A13.59,13.59,0,0,0,2.76,16.5,11.29,11.29,0,0,0,3.93,30.13,10.65,10.65,0,0,0,6.1,32a10.6,10.6,0,0,0-2.17,1.86A11.3,11.3,0,0,0,2.76,47.5,13.63,13.63,0,0,0,16.2,53.38a12.2,12.2,0,0,0,2.85-.79,8.93,8.93,0,0,0,.68,2.65A13.17,13.17,0,0,0,32,63a13.2,13.2,0,0,0,12.27-7.76A9.25,9.25,0,0,0,45,52.59a12.07,12.07,0,0,0,2.85.79A13.6,13.6,0,0,0,61.24,47.5a11.32,11.32,0,0,0-1.17-13.64A10.6,10.6,0,0,0,57.9,32"/><path class="cls-2" d="M4,33.84A10.88,10.88,0,0,1,6.09,32h0A10.65,10.65,0,0,0,4,33.84"/><polyline class="cls-2" points="3.95 33.84 3.95 33.84 3.95 33.84"/><polyline class="cls-2" points="3.94 33.85 3.94 33.85 3.94 33.85"/><path class="cls-2" d="M16.23,53.37a11.61,11.61,0,0,0,2.82-.78h0a11.18,11.18,0,0,1-2.82.78"/><polyline class="cls-2" points="16.22 53.38 16.22 53.38 16.22 53.38"/><path class="cls-2" d="M14.16,53.52a13.45,13.45,0,0,1-11.4-6,11.25,11.25,0,0,1-1.76-6,11.49,11.49,0,0,1,2.93-7.62H4A10.65,10.65,0,0,1,6.1,32c2.73,1.8,6.16,2.45,9.45,3.26l1.58.39-10.91,10L21.12,42c-.14.49-.29,1-.43,1.45-.87,3-2,6.08-1.64,9.15a11.61,11.61,0,0,1-2.82.78h0a14,14,0,0,1-2,.14"/><path class="cls-2" d="M19.7,55.19a9.54,9.54,0,0,1-.65-2.6h0a9.54,9.54,0,0,0,.65,2.6"/><polyline class="cls-2" points="19.71 55.2 19.7 55.19 19.71 55.2"/><polyline class="cls-2" points="19.71 55.21 19.71 55.2 19.71 55.21"/><polyline class="cls-2" points="19.72 55.22 19.71 55.22 19.72 55.22"/><path class="cls-2" d="M44.28,55.22A9,9,0,0,0,45,52.59h0a9,9,0,0,1-.67,2.63"/><polyline class="cls-2" points="19.72 55.23 19.72 55.23 19.72 55.23"/><polyline class="cls-2" points="44.28 55.23 44.28 55.23 44.28 55.23"/><path class="cls-2" d="M32,63a13.19,13.19,0,0,1-12.25-7.76h0a9.54,9.54,0,0,1-.65-2.6c3.06-1.27,5.39-3.67,7.81-5.88L28,45.64l4,13.68,4-13.68,1.15,1.06c2.41,2.21,4.75,4.61,7.81,5.88a9,9,0,0,1-.67,2.63h0A13.2,13.2,0,0,1,32,63h-.06"/><polyline class="cls-3" points="19.05 52.59 19.05 52.59 19.05 52.59 19.05 52.59 19.05 52.59"/><path class="cls-3" d="M19.05,52.59h0c-.33-3.07.77-6.13,1.64-9.15.14-.48.29-1,.43-1.45l5.43-1.34c.49,1.67,1,3.33,1.46,5l-1.15,1.06c-2.42,2.21-4.75,4.61-7.81,5.88"/><path class="cls-2" d="M60,33.8A10.28,10.28,0,0,0,57.9,32h0A10.49,10.49,0,0,1,60,33.8"/><polyline class="cls-2" points="60.02 33.81 60.02 33.8 60.02 33.81"/><path class="cls-2" d="M49.84,53.52a14,14,0,0,1-2-.14A11.61,11.61,0,0,1,45,52.59h0a12.07,12.07,0,0,0,2.85.79,14,14,0,0,0,2,.14,13.41,13.41,0,0,0,11.4-6,11.36,11.36,0,0,0,1.76-6,11.36,11.36,0,0,1-1.76,6,13.41,13.41,0,0,1-11.4,6"/><path class="cls-2" d="M49.84,53.52a14,14,0,0,1-2-.14A12.07,12.07,0,0,1,45,52.59c.33-3.07-.77-6.13-1.65-9.15L42.88,42l14.9,3.67-10.91-10,1.58-.39c3.29-.81,6.72-1.46,9.45-3.26A10.28,10.28,0,0,1,60,33.8h0l0,0A11.49,11.49,0,0,1,63,41.48a11.36,11.36,0,0,1-1.76,6,13.41,13.41,0,0,1-11.4,6"/><polyline class="cls-3" points="44.95 52.59 44.95 52.59 44.95 52.59 44.95 52.59 44.95 52.59"/><path class="cls-3" d="M45,52.59c-3.06-1.27-5.4-3.67-7.81-5.88L36,45.65c.48-1.67,1-3.33,1.46-5L42.88,42l.42,1.45c.88,3,2,6.08,1.65,9.15h0"/><path class="cls-3" d="M6.22,45.66l10.91-10L22.58,37q-.73,2.5-1.46,5L6.22,45.66"/><path class="cls-4" d="M21.12,42q.72-2.49,1.46-5l3.13.77.84,2.89L21.12,42"/><polyline class="cls-2" points="47.78 10.62 47.78 10.62 47.78 10.62"/><polyline class="cls-2" points="47.76 10.62 47.77 10.62 47.76 10.62"/><path class="cls-2" d="M45,11.41h0a11.86,11.86,0,0,1,2.81-.78,11.87,11.87,0,0,0-2.81.79"/><polyline class="cls-2" points="60.02 30.19 60.02 30.19 60.02 30.19"/><path class="cls-2" d="M57.91,32h0A10.28,10.28,0,0,0,60,30.19,10.55,10.55,0,0,1,57.91,32"/><path class="cls-2" d="M57.9,32c-2.73-1.79-6.16-2.45-9.45-3.26l-1.58-.39,10.91-10L42.88,22l.42-1.45c.88-3,2-6.07,1.65-9.14a11.87,11.87,0,0,1,2.81-.79h0a14,14,0,0,1,2-.15,13.44,13.44,0,0,1,11.4,6,11.22,11.22,0,0,1,1.76,6,11.49,11.49,0,0,1-2.93,7.62l0,.06h0A10.28,10.28,0,0,1,57.9,32"/><path class="cls-3" d="M46.87,28.34,41.42,27q.73-2.49,1.46-5l14.9-3.67-10.91,10"/><polyline class="cls-3" points="57.9 32 57.9 32 57.9 31.99 57.91 32 57.9 32"/><path class="cls-3" d="M46.87,35.65l-4-3.65,4-3.66,1.58.39c3.29.81,6.72,1.47,9.45,3.26h0c-2.73,1.8-6.16,2.45-9.45,3.26l-1.58.39"/><path class="cls-4" d="M42.89,32l-2.31-2.12L41.42,27l5.45,1.34-4,3.66"/><path class="cls-3" d="M57.78,45.66,42.88,42c-.49-1.66-1-3.33-1.46-5l5.45-1.34,10.91,10"/><path class="cls-4" d="M42.88,42l-5.43-1.34.84-2.89L41.42,37c.49,1.67,1,3.33,1.46,5"/><path class="cls-4" d="M41.42,37l-.84-2.88L42.89,32l4,3.65L41.42,37"/><path class="cls-5" d="M40.58,34.11,40,32c.2-.71.41-1.41.61-2.12L42.89,32l-2.31,2.11"/><path class="cls-5" d="M38.29,37.76c.14-.5.29-1,.44-1.51l.17-.6.48-.43,1.2-1.11L41.42,37l-3.13.77"/><path class="cls-6" d="M38.9,35.65,40,32l.61,2.11-1.2,1.11-.48.43"/><path class="cls-2" d="M16.2,10.62a14,14,0,0,0-2-.15,14,14,0,0,1,2,.15"/><polyline class="cls-2" points="16.22 10.62 16.22 10.62 16.22 10.62"/><polyline class="cls-2" points="16.23 10.62 16.23 10.62 16.23 10.62"/><polyline class="cls-2" points="16.25 10.62 16.24 10.62 16.25 10.62"/><path class="cls-2" d="M19.05,11.41a11.79,11.79,0,0,0-2.8-.79,11.91,11.91,0,0,1,2.8.78h0"/><polyline class="cls-2" points="3.94 30.15 3.94 30.14 3.94 30.15"/><path class="cls-2" d="M6.09,32A10.7,10.7,0,0,1,4,30.15,10.39,10.39,0,0,0,6.1,32h0"/><path class="cls-2" d="M6.1,32A10.39,10.39,0,0,1,4,30.15h0A11.49,11.49,0,0,1,1,22.51a11.22,11.22,0,0,1,1.76-6,13.44,13.44,0,0,1,11.4-6h0a14,14,0,0,1,2,.15h.05a11.79,11.79,0,0,1,2.8.79c-.33,3.07.77,6.12,1.64,9.14.14.49.29,1,.43,1.45L6.22,18.33l10.91,10-1.58.38C12.26,29.54,8.83,30.2,6.1,32"/><polyline class="cls-3" points="6.1 32 6.09 32 6.1 31.99 6.1 32 6.1 32"/><path class="cls-3" d="M17.13,35.65l-1.58-.39C12.26,34.45,8.83,33.8,6.1,32h0c2.73-1.79,6.16-2.45,9.45-3.26l1.58-.39,4,3.66-4,3.65"/><path class="cls-3" d="M17.13,28.34l-10.91-10L21.12,22q.72,2.51,1.46,5l-5.45,1.34"/><path class="cls-4" d="M21.11,32l-4-3.66L22.58,27c.28,1,.55,1.92.83,2.88L21.11,32"/><path class="cls-4" d="M22.58,37l-5.45-1.34,4-3.65,2.3,2.11c-.28,1-.56,1.92-.83,2.88"/><path class="cls-5" d="M25.71,37.76,22.58,37c.28-1,.56-1.92.83-2.88l1.21,1.11.48.43c0,.2.11.4.17.6.15.51.29,1,.44,1.51"/><path class="cls-5" d="M23.41,34.11,21.11,32l2.3-2.12c.21.71.42,1.41.62,2.12-.2.7-.41,1.41-.62,2.11"/><path class="cls-6" d="M25.1,35.65l-.48-.43-1.21-1.11c.21-.7.42-1.41.62-2.11l1.07,3.65"/><path class="cls-7" d="M32,59.33,28,45.65,32,42l4,3.66L32,59.33"/><path class="cls-8" d="M28,45.65c-.48-1.67-1-3.33-1.46-5l3.15-.77L32,42l-4,3.66"/><path class="cls-8" d="M36,45.65,32,42c.76-.71,1.53-1.41,2.3-2.11l3.15.77c-.49,1.67-1,3.33-1.46,5"/><path class="cls-9" d="M32,42l-2.3-2.11,1.65-.41.65-.16.65.16,1.65.41c-.77.7-1.54,1.4-2.3,2.11"/><path class="cls-9" d="M26.55,40.65l-.84-2.89,2.3.57,1.69,1.55-3.15.77"/><path class="cls-10" d="M29.7,39.88,28,38.33l4,1-.65.16-1.65.41"/><path class="cls-11" d="M19.05,11.4h0a9.33,9.33,0,0,1,.68-2.65,9.33,9.33,0,0,0-.68,2.65"/><path class="cls-11" d="M45,11.4a9.49,9.49,0,0,0-.67-2.64A9.16,9.16,0,0,1,45,11.4h0"/><path class="cls-11" d="M36,18.35,32,4.67,28,18.35c-.38-.36-.77-.71-1.16-1.06-2.4-2.21-4.74-4.62-7.8-5.89a9.33,9.33,0,0,1,.68-2.65A13.22,13.22,0,0,1,32,1h0A13.18,13.18,0,0,1,44.27,8.75h0A9.49,9.49,0,0,1,45,11.4c-3.06,1.27-5.4,3.68-7.8,5.89L36,18.35"/><path class="cls-7" d="M32,22l-4-3.66L32,4.67l4,13.68L32,22"/><polyline class="cls-12" points="44.95 11.41 44.95 11.4 44.95 11.4 44.95 11.41 44.95 11.41"/><path class="cls-7" d="M37.44,23.34l-1.45-5,1.16-1.06c2.4-2.21,4.74-4.62,7.8-5.89h0c.33,3.07-.77,6.12-1.65,9.14L42.88,22l-5.44,1.34"/><path class="cls-8" d="M41.42,27l-3.13-.77c-.28-1-.56-1.93-.85-2.89L42.88,22q-.72,2.51-1.46,5"/><path class="cls-8" d="M34.3,24.12,32,22l4-3.66,1.45,5-3.14.78"/><path class="cls-9" d="M38.29,26.23,36,25.67,34.3,24.12l3.14-.78c.29,1,.57,1.93.85,2.89"/><path class="cls-9" d="M40.58,29.88l-1.2-1.1-.48-.44c-.06-.2-.11-.4-.17-.6-.15-.5-.3-1-.44-1.51l3.13.77-.84,2.88"/><path class="cls-10" d="M38.9,28.34,36,25.67l2.3.56c.14.5.29,1,.44,1.51.06.2.11.4.17.6"/><polyline class="cls-12" points="19.05 11.41 19.05 11.41 19.05 11.4 19.05 11.4 19.05 11.41"/><path class="cls-7" d="M26.55,23.34,21.12,22l-.43-1.45c-.87-3-2-6.07-1.64-9.14h0c3.06,1.27,5.4,3.68,7.8,5.89.39.35.78.7,1.16,1.06-.48,1.66-1,3.33-1.46,5"/><path class="cls-8" d="M29.7,24.12l-3.15-.78c.49-1.66,1-3.33,1.46-5L32,22l-2.3,2.11"/><path class="cls-9" d="M37.45,40.65l-3.15-.77L36,38.33l2.31-.57-.84,2.89"/><path class="cls-10" d="M34.3,39.88l-1.65-.41L32,39.31l4-1L34.3,39.88"/><path class="cls-8" d="M22.58,27q-.73-2.49-1.46-5l5.43,1.34-.84,2.89L22.58,27"/><path class="cls-9" d="M23.41,29.88c-.28-1-.56-1.92-.83-2.88l3.13-.77c-.14.5-.29,1-.44,1.51-.06.2-.12.4-.17.6l-.48.44c-.4.37-.8.74-1.21,1.1"/><path class="cls-9" d="M25.71,26.23l.84-2.89,3.15.78L28,25.66l-2.3.57"/><path class="cls-10" d="M25.1,28.34c0-.2.11-.4.17-.6.15-.5.3-1,.44-1.51l2.3-.57L25.1,28.34"/><path class="cls-10" d="M28,38.33l-2.3-.57c-.15-.5-.29-1-.44-1.51-.06-.2-.12-.4-.17-.6L28,38.33"/><path class="cls-9" d="M32,24.68l-.65-.16-1.65-.4L32,22l2.3,2.11-1.65.4-.65.16"/><path class="cls-10" d="M36,25.67l-4-1,.65-.16,1.65-.4L36,25.67"/><path class="cls-10" d="M24,32c-.2-.71-.41-1.41-.62-2.12.41-.36.81-.73,1.21-1.1l.48-.44c-.36,1.22-.71,2.44-1.07,3.66"/><path class="cls-10" d="M40,32c-.36-1.22-.71-2.44-1.07-3.66l.48.44,1.2,1.1c-.2.71-.41,1.41-.61,2.12"/><path class="cls-10" d="M28,25.66l1.69-1.54,1.65.4.65.16-4,1"/><path class="cls-10" d="M36,38.33l2.92-2.68c0,.2-.11.4-.17.6-.15.51-.3,1-.44,1.51L36,38.33"/><path class="cls-13" d="M32,39.31l-4-1L25.1,35.65,24,32c.36-1.22.71-2.44,1.07-3.66L28,25.66l4-1,4,1,2.91,2.67c.36,1.22.71,2.44,1.07,3.66L38.9,35.65,36,38.33l-4,1"/></g></svg>